<svg width="100" height="100" viewBox="0 0 100 100" fill="none" xmlns="http://www.w3.org/2000/svg">
<path d="M50.0001 8.33325C63.7917 8.33325 75.0001 19.4166 75.0001 33.1249C75.0001 51.7082 50.0001 79.1666 50.0001 79.1666C50.0001 79.1666 25.0001 51.7082 25.0001 33.1249C25.0001 19.4166 36.2084 8.33325 50.0001 8.33325ZM50.0001 24.9999C47.7899 24.9999 45.6703 25.8779 44.1075 27.4407C42.5447 29.0035 41.6667 31.1231 41.6667 33.3333C41.6667 35.5434 42.5447 37.663 44.1075 39.2258C45.6703 40.7886 47.7899 41.6666 50.0001 41.6666C52.2102 41.6666 54.3298 40.7886 55.8926 39.2258C57.4554 37.663 58.3334 35.5434 58.3334 33.3333C58.3334 31.1231 57.4554 29.0035 55.8926 27.4407C54.3298 25.8779 52.2102 24.9999 50.0001 24.9999ZM83.3334 79.1666C83.3334 88.3749 68.4167 95.8332 50.0001 95.8332C31.5834 95.8332 16.6667 88.3749 16.6667 79.1666C16.6667 73.7916 21.7501 68.9999 29.6251 65.9582L32.2917 69.7499C27.7917 71.6249 25.0001 74.2082 25.0001 77.0832C25.0001 82.8332 36.2084 87.4999 50.0001 87.4999C63.7917 87.4999 75.0001 82.8332 75.0001 77.0832C75.0001 74.2082 72.2084 71.6249 67.7084 69.7499L70.3751 65.9582C78.2501 68.9999 83.3334 73.7916 83.3334 79.1666Z" fill="black"/>
</svg>
