<?xml version="1.0" standalone="no"?>
<!DOCTYPE svg PUBLIC "-//W3C//DTD SVG 20010904//EN"
 "http://www.w3.org/TR/2001/REC-SVG-20010904/DTD/svg10.dtd">
<svg version="1.0" xmlns="http://www.w3.org/2000/svg"
 width="512.000000pt" height="512.000000pt" viewBox="0 0 512.000000 512.000000"
 preserveAspectRatio="xMidYMid meet">

<g transform="translate(0.000000,512.000000) scale(0.100000,-0.100000)"
fill="#000000" stroke="none">
<path d="M2400 4999 c-573 -53 -1087 -354 -1408 -822 -156 -228 -251 -458
-309 -752 -14 -71 -18 -140 -18 -325 0 -206 3 -249 23 -350 53 -259 175 -546
320 -750 41 -57 153 -182 288 -322 451 -463 676 -771 927 -1274 70 -140 94
-179 132 -212 114 -100 296 -100 409 -1 37 33 63 75 142 232 250 497 466 793
899 1237 122 124 241 252 266 285 197 258 328 571 374 896 17 122 19 369 4
489 -105 853 -759 1526 -1604 1654 -132 20 -327 26 -445 15z m428 -520 c273
-52 512 -180 718 -384 203 -202 330 -435 391 -718 26 -117 25 -428 0 -547
-121 -566 -551 -994 -1115 -1107 -122 -25 -404 -25 -522 0 -320 67 -609 235
-804 467 -153 183 -244 362 -303 596 -25 100 -27 125 -28 309 0 215 9 284 61
442 135 414 473 756 883 893 237 80 471 95 719 49z"/>
<path d="M2433 4125 c-183 -50 -325 -195 -368 -376 -11 -48 -15 -126 -15 -306
l0 -243 510 0 510 0 0 243 c0 269 -9 330 -60 426 -112 209 -354 316 -577 256z"/>
<path d="M2050 2800 c0 -165 5 -301 11 -332 43 -205 222 -370 434 -400 232
-33 462 109 547 338 20 55 22 80 26 367 l4 307 -511 0 -511 0 0 -280z"/>
</g>
</svg>
