<svg width="96" height="96" viewBox="0 0 96 96" fill="none" xmlns="http://www.w3.org/2000/svg">
<path fill-rule="evenodd" clip-rule="evenodd" d="M42.8012 0H53.1988C62.2474 0 69.4154 0 75.0228 0.683163C80.7926 1.38865 85.4646 2.87107 89.152 6.21098C92.8345 9.55535 94.4689 13.7927 95.2468 19.0259C96 24.1161 96 30.6128 96 38.8197V57.1803C96 65.3872 96 71.8884 95.2468 76.9741C94.4689 82.2073 92.8345 86.4446 89.152 89.789C85.4646 93.1289 80.7926 94.6114 75.0228 95.3168C69.4105 96 62.2474 96 53.1988 96H42.8012C33.7526 96 26.5846 96 20.9772 95.3168C15.2074 94.6114 10.5354 93.1289 6.848 89.789C3.16554 86.4446 1.53108 82.2073 0.753231 76.9741C5.86877e-07 71.8839 0 65.3872 0 57.1803V38.8197C0 30.6128 5.86877e-07 24.1116 0.753231 19.0259C1.53108 13.7927 3.16554 9.55535 6.848 6.21098C10.5354 2.87107 15.2074 1.38865 20.9772 0.683163C26.5895 0 33.7526 0 42.8012 0ZM21.9569 7.32279C17.0043 7.92558 14.1489 9.05972 12.0615 10.9485C9.984 12.8372 8.73354 15.427 8.06892 19.9189C7.38954 24.509 7.37969 30.5548 7.37969 39.0698V56.9302C7.37969 65.4452 7.38954 71.4955 8.06892 76.0856C8.73354 80.573 9.984 83.1628 12.0665 85.0515C14.1489 86.9403 17.0043 88.0744 21.9569 88.6772C27.0178 89.2934 33.6837 89.3023 43.072 89.3023H52.9182C62.3065 89.3023 68.9772 89.2934 74.0382 88.6772C78.9858 88.0744 81.8412 86.9403 83.9237 85.0515C86.0062 83.1628 87.2566 80.573 87.9212 76.0811C88.6006 71.4954 88.6105 65.4452 88.6105 56.9302V39.0698C88.6105 30.5548 88.6006 24.509 87.9212 19.9144C87.2566 15.427 86.0062 12.8372 83.9237 10.9485C81.8412 9.05972 78.9858 7.92558 74.0332 7.32279C68.9772 6.70661 62.3065 6.69767 52.9182 6.69767H43.072C33.6837 6.69767 27.0228 6.70661 21.9569 7.32279ZM48 17.8605C48.9793 17.8605 49.9184 18.2133 50.6109 18.8413C51.3033 19.4693 51.6923 20.3211 51.6923 21.2093V26.7907H57.8462C58.8254 26.7907 59.7646 27.1435 60.457 27.7716C61.1495 28.3996 61.5385 29.2514 61.5385 30.1395C61.5385 31.0277 61.1495 31.8795 60.457 32.5075C59.7646 33.1355 58.8254 33.4884 57.8462 33.4884H51.6923V39.0698C51.6923 39.9579 51.3033 40.8097 50.6109 41.4378C49.9184 42.0658 48.9793 42.4186 48 42.4186C47.0207 42.4186 46.0816 42.0658 45.3891 41.4378C44.6967 40.8097 44.3077 39.9579 44.3077 39.0698V33.4884H38.1538C37.1746 33.4884 36.2354 33.1355 35.543 32.5075C34.8506 31.8795 34.4615 31.0277 34.4615 30.1395C34.4615 29.2514 34.8506 28.3996 35.543 27.7716C36.2354 27.1435 37.1746 26.7907 38.1538 26.7907H44.3077V21.2093C44.3077 20.3211 44.6967 19.4693 45.3891 18.8413C46.0816 18.2133 47.0207 17.8605 48 17.8605ZM24.6154 56.9302C24.6154 56.0421 25.0044 55.1903 25.6968 54.5623C26.3893 53.9342 27.3284 53.5814 28.3077 53.5814H67.6923C68.6716 53.5814 69.6107 53.9342 70.3032 54.5623C70.9956 55.1903 71.3846 56.0421 71.3846 56.9302C71.3846 57.8184 70.9956 58.6702 70.3032 59.2982C69.6107 59.9262 68.6716 60.2791 67.6923 60.2791H28.3077C27.3284 60.2791 26.3893 59.9262 25.6968 59.2982C25.0044 58.6702 24.6154 57.8184 24.6154 56.9302ZM29.5385 74.7907C29.5385 73.9025 29.9275 73.0507 30.6199 72.4227C31.3124 71.7947 32.2515 71.4419 33.2308 71.4419H62.7692C63.7485 71.4419 64.6876 71.7947 65.3801 72.4227C66.0725 73.0507 66.4615 73.9025 66.4615 74.7907C66.4615 75.6789 66.0725 76.5307 65.3801 77.1587C64.6876 77.7867 63.7485 78.1395 62.7692 78.1395H33.2308C32.2515 78.1395 31.3124 77.7867 30.6199 77.1587C29.9275 76.5307 29.5385 75.6789 29.5385 74.7907Z" fill="#64F06A"/>
</svg>
